Coordinates
version=1
nRows=8
nColumns=36
inDegrees=yes

Units are S.I. units (second, meters, Newtons, ...)
If the header above contains a line with 'inDegrees', this indicates whether rotational values are in degrees (yes) or radians (no).

endheader
time	pelvis_tilt	pelvis_list	pelvis_rotation	pelvis_tx	pelvis_ty	pelvis_tz	hip_flexion_r	hip_adduction_r	hip_rotation_r	knee_angle_r	knee_angle_r_beta	ankle_angle_r	subtalar_angle_r	mtp_angle_r	hip_flexion_l	hip_adduction_l	hip_rotation_l	knee_angle_l	knee_angle_l_beta	ankle_angle_l	subtalar_angle_l	mtp_angle_l	lumbar_extension	lumbar_bending	lumbar_rotation	arm_flex_r	arm_add_r	arm_rot_r	elbow_flex_r	pro_sup_r	arm_flex_l	arm_add_l	arm_rot_l	elbow_flex_l	pro_sup_l
      0.00000000	     -6.60416506	     -2.53942331	     10.72797219	      0.67903200	      0.92948892	     -0.04862837	      3.20312199	     -3.44913916	     -3.62261539	      0.51878353	      0.00905448	     -0.96723589	     -9.95682745	     -6.07543735	      5.12205459	     -7.50035741	     -2.47041362	      0.66754494	      0.01165086	      4.38242951	     -2.51831737	     -6.07543735	      3.49660878	      1.60192306	      0.07898494	     35.01608191	     -0.87311283	     49.27022245	    121.33623037	     87.59462193	     31.48563552	      3.61439128	     65.79065954	    119.82443381	     96.98178369
      0.01666670	     -6.96843473	     -1.86003547	      9.99585693	      0.67761496	      0.93034343	     -0.04554922	      3.83308487	     -4.30006036	     -4.81545649	      0.65333347	      0.01140282	      0.72986208	     -8.63379491	     -6.43974332	      5.12690184	     -6.87575519	     -3.32235629	      0.70134508	      0.01224078	      3.04373403	     -3.16497117	     -6.43974332	      2.81934820	      1.27594697	      1.98208967	     37.33842987	     -3.01693874	     59.44134734	    126.13003303	    100.83318218	     32.25102552	      2.78673307	     66.52983549	    123.93288767	    107.12490181
      0.03333330	     -6.97856784	     -1.66635922	     10.20059933	      0.67822166	      0.93082572	     -0.04566605	      3.78055462	     -4.43210546	     -4.63219640	      0.77297320	      0.01349093	      1.59505693	     -8.59348322	     -7.30034963	      5.21186329	     -6.70142167	     -3.11165089	      0.87346681	      0.01524487	      2.67128161	     -3.78135116	     -7.30034963	      2.67607595	      0.74478312	      1.65690874	     36.53953145	     -1.21828209	     58.67273758	    126.89935313	    104.62480000	     32.74267669	      1.87794801	     67.28529174	    124.39647763	    110.32725870
      0.05000000	     -7.05233093	     -1.59125372	     10.45539448	      0.67810282	      0.93000598	     -0.04604743	      3.86374758	     -4.62071094	     -4.87748174	      0.86150464	      0.01503609	      2.01486179	     -8.52587576	     -7.36984230	      5.44708955	     -6.60459881	     -3.37835836	      1.08482193	      0.01893371	      2.93119553	     -3.56616894	     -7.36984230	      2.68332119	      0.50844665	      1.51672647	     36.25343779	     -0.16926463	     58.63472642	    126.60718197	    104.96305222	     33.14829970	      1.60757147	     67.31846851	    124.50362908	    111.08387822
      0.06666670	     -7.20863909	     -1.58853950	     10.59242521	      0.67755485	      0.92987176	     -0.04644954	      4.11252583	     -4.67353392	     -5.21006261	      1.04067708	      0.01816324	      2.44621723	     -8.10963536	     -7.45235504	      5.73957086	     -6.58435915	     -3.38157794	      1.33950920	      0.02337885	      3.13856082	     -3.47620467	     -7.45235504	      2.78813935	      0.39331001	      1.54449353	     35.89214234	      0.22855535	     58.84064829	    126.22662068	    105.05383139	     33.44764013	      1.75412674	     67.15576557	    124.25102129	    110.82991275
      0.08333330	     -7.48632475	     -1.65306333	     10.68393351	      0.67773709	      0.92953436	     -0.04651959	      4.51855099	     -4.68883014	     -5.51846841	      1.28788657	      0.02247786	      2.59695682	     -8.00090056	     -7.49513064	      6.19308427	     -6.61610781	     -3.53863018	      1.63993333	      0.02862224	      3.44409717	     -3.23469095	     -7.49513064	      3.07965271	      0.37655357	      1.54114223	     35.40559704	      0.55736413	     58.98145607	    125.93340045	    105.05212187	     33.70994018	      1.87232931	     66.85938529	    123.74383068	    110.15318582
      0.10000000	     -7.81803375	     -1.72943783	     10.73622640	      0.67700245	      0.93127295	     -0.04654486	      5.01549534	     -4.70075746	     -5.82105775	      1.50436003	      0.02625604	      2.74483197	     -7.88014013	     -7.49765685	      6.69083985	     -6.63811625	     -3.51926450	      1.86457356	      0.03254295	      3.42837949	     -3.41568329	     -7.49765685	      3.40125756	      0.38132341	      1.72327283	     34.84528112	      0.55261066	     59.15140272	    125.81195396	    103.87819137	     33.77617987	      1.89066646	     66.71490875	    123.25794683	    109.54353203
      0.11666670	     -8.02021864	     -1.82915052	     10.76444566	      0.67673667	      0.93066541	     -0.04611513	      5.34392086	     -4.61770917	     -5.99903429	      1.66220335	      0.02901092	      2.89727045	     -7.85875457	     -7.49862684	      7.05782847	     -6.73020044	     -4.07962196	      2.08249737	      0.03634644	      3.75676101	     -2.57123387	     -7.49862684	      3.55171643	      0.48141010	      1.79478091	     34.53670095	      0.65218561	     59.23663505	    125.70142590	    103.80297162	     33.68131795	      1.68403777	     66.27014881	    122.91655577	    109.31171431
